<svg width="17" height="22" viewBox="0 0 17 22" fill="none" xmlns="http://www.w3.org/2000/svg">
<g clip-path="url(#clip0_639_124)">
<path d="M7.69461 0.236231C8.18159 -0.0774414 8.81909 -0.0774414 9.30607 0.236231L10.0941 0.738965C10.3597 0.906543 10.6696 0.988184 10.9839 0.970996L11.9269 0.915137C12.5113 0.880762 13.0602 1.19014 13.3214 1.69717L13.7464 2.51787C13.8881 2.79287 14.1183 3.01201 14.3972 3.14951L15.2516 3.56631C15.774 3.81982 16.0928 4.35264 16.0574 4.91982L15.9998 5.83506C15.9821 6.14014 16.0662 6.44522 16.2389 6.69873L16.7613 7.46357C17.0845 7.93623 17.0845 8.55498 16.7613 9.02764L16.2389 9.79678C16.0662 10.0546 15.9821 10.3554 15.9998 10.6605L16.0574 11.5757C16.0928 12.1429 15.774 12.6757 15.2516 12.9292L14.4061 13.3417C14.1227 13.4792 13.897 13.7026 13.7553 13.9733L13.3259 14.8026C13.0647 15.3097 12.5157 15.619 11.9313 15.5847L10.9884 15.5288C10.674 15.5116 10.3597 15.5933 10.0985 15.7608L9.31049 16.2679C8.82351 16.5815 8.18601 16.5815 7.69903 16.2679L6.90659 15.7608C6.64096 15.5933 6.33107 15.5116 6.01674 15.5288L5.07377 15.5847C4.4894 15.619 3.94044 15.3097 3.67924 14.8026L3.25424 13.9819C3.11258 13.7069 2.88237 13.4878 2.60346 13.3503L1.74903 12.9335C1.22664 12.68 0.907889 12.1472 0.943305 11.58L1.00086 10.6647C1.01857 10.3597 0.934451 10.0546 0.761795 9.80108L0.243826 9.03193C-0.0793508 8.55928 -0.0793508 7.94053 0.243826 7.46787L0.761795 6.70303C0.934451 6.44522 1.01857 6.14443 1.00086 5.83936L0.943305 4.92412C0.907889 4.35693 1.22664 3.82412 1.74903 3.57061L2.59461 3.15811C2.87794 3.01631 3.10815 2.79287 3.24982 2.51787L3.67482 1.69717C3.93601 1.19014 4.48497 0.880762 5.06935 0.915137L6.01232 0.970996C6.32664 0.988184 6.64096 0.906543 6.90216 0.738965L7.69461 0.236231ZM12.042 8.2499C12.042 7.33822 11.6689 6.46388 11.0047 5.81922C10.3405 5.17457 9.43965 4.8124 8.50034 4.8124C7.56103 4.8124 6.66019 5.17457 5.996 5.81922C5.33181 6.46388 4.95867 7.33822 4.95867 8.2499C4.95867 9.16159 5.33181 10.0359 5.996 10.6806C6.66019 11.3252 7.56103 11.6874 8.50034 11.6874C9.43965 11.6874 10.3405 11.3252 11.0047 10.6806C11.6689 10.0359 12.042 9.16159 12.042 8.2499ZM0.0578888 18.9835L1.96596 14.5792C1.97482 14.5835 1.97924 14.5878 1.98367 14.5964L2.40867 15.4171C2.92664 16.414 4.00242 17.0198 5.15346 16.9554L6.09643 16.8995C6.10529 16.8995 6.11857 16.8995 6.12742 16.9081L6.91544 17.4151C7.14122 17.5569 7.38029 17.6687 7.6282 17.746L5.96362 21.5831C5.8618 21.8194 5.63601 21.9784 5.37482 21.9999C5.11362 22.0214 4.86127 21.9054 4.71961 21.6905L3.29409 19.5722L0.810493 19.9288C0.558149 19.9632 0.305806 19.8644 0.146431 19.671C-0.0129445 19.4776 -0.0439341 19.2112 0.0534617 18.9835H0.0578888ZM11.0371 21.5788L9.37247 17.746C9.62039 17.6687 9.85945 17.5612 10.0852 17.4151L10.8733 16.9081C10.8821 16.9038 10.891 16.8995 10.9042 16.8995L11.8472 16.9554C12.9983 17.0198 14.074 16.414 14.592 15.4171L15.017 14.5964C15.0214 14.5878 15.0259 14.5835 15.0347 14.5792L16.9472 18.9835C17.0446 19.2112 17.0092 19.4733 16.8542 19.671C16.6993 19.8687 16.4425 19.9675 16.1902 19.9288L13.7066 19.5722L12.2811 21.6862C12.1394 21.9011 11.8871 22.0171 11.6259 21.9956C11.3647 21.9741 11.1389 21.8108 11.0371 21.5788Z" fill="black"/>
</g>
<defs>
<clipPath id="clip0_639_124">
<rect width="17" height="22" fill="white"/>
</clipPath>
</defs>
</svg>
