<svg width="18" height="20" viewBox="0 0 18 20" fill="none" xmlns="http://www.w3.org/2000/svg">
<g clip-path="url(#clip0_639_138)">
<path d="M5.14286 0C5.85402 0 6.42857 0.558594 6.42857 1.25V2.5H11.5714V1.25C11.5714 0.558594 12.146 0 12.8571 0C13.5683 0 14.1429 0.558594 14.1429 1.25V2.5H16.0714C17.1362 2.5 18 3.33984 18 4.375V6.25H0V4.375C0 3.33984 0.863839 2.5 1.92857 2.5H3.85714V1.25C3.85714 0.558594 4.4317 0 5.14286 0ZM0 7.5H18V18.125C18 19.1602 17.1362 20 16.0714 20H1.92857C0.863839 20 0 19.1602 0 18.125V7.5ZM2.57143 10.625V11.875C2.57143 12.2188 2.86071 12.5 3.21429 12.5H4.5C4.85357 12.5 5.14286 12.2188 5.14286 11.875V10.625C5.14286 10.2812 4.85357 10 4.5 10H3.21429C2.86071 10 2.57143 10.2812 2.57143 10.625ZM7.71429 10.625V11.875C7.71429 12.2188 8.00357 12.5 8.35714 12.5H9.64286C9.99643 12.5 10.2857 12.2188 10.2857 11.875V10.625C10.2857 10.2812 9.99643 10 9.64286 10H8.35714C8.00357 10 7.71429 10.2812 7.71429 10.625ZM13.5 10C13.1464 10 12.8571 10.2812 12.8571 10.625V11.875C12.8571 12.2188 13.1464 12.5 13.5 12.5H14.7857C15.1393 12.5 15.4286 12.2188 15.4286 11.875V10.625C15.4286 10.2812 15.1393 10 14.7857 10H13.5ZM2.57143 15.625V16.875C2.57143 17.2188 2.86071 17.5 3.21429 17.5H4.5C4.85357 17.5 5.14286 17.2188 5.14286 16.875V15.625C5.14286 15.2812 4.85357 15 4.5 15H3.21429C2.86071 15 2.57143 15.2812 2.57143 15.625ZM8.35714 15C8.00357 15 7.71429 15.2812 7.71429 15.625V16.875C7.71429 17.2188 8.00357 17.5 8.35714 17.5H9.64286C9.99643 17.5 10.2857 17.2188 10.2857 16.875V15.625C10.2857 15.2812 9.99643 15 9.64286 15H8.35714ZM12.8571 15.625V16.875C12.8571 17.2188 13.1464 17.5 13.5 17.5H14.7857C15.1393 17.5 15.4286 17.2188 15.4286 16.875V15.625C15.4286 15.2812 15.1393 15 14.7857 15H13.5C13.1464 15 12.8571 15.2812 12.8571 15.625Z" fill="black"/>
</g>
<defs>
<clipPath id="clip0_639_138">
<rect width="18" height="20" fill="white"/>
</clipPath>
</defs>
</svg>
