<svg width="18" height="20" viewBox="0 0 18 20" fill="none" xmlns="http://www.w3.org/2000/svg">
<g clip-path="url(#clip0_639_130)">
<path d="M5.14286 0C5.85402 0 6.42857 0.558594 6.42857 1.25V2.5H11.5714V1.25C11.5714 0.558594 12.146 0 12.8571 0C13.5683 0 14.1429 0.558594 14.1429 1.25V2.5H16.0714C17.1362 2.5 18 3.33984 18 4.375V6.25H0V4.375C0 3.33984 0.863839 2.5 1.92857 2.5H3.85714V1.25C3.85714 0.558594 4.4317 0 5.14286 0ZM0 7.5H18V18.125C18 19.1602 17.1362 20 16.0714 20H1.92857C0.863839 20 0 19.1602 0 18.125V7.5ZM13.2188 11.9141C13.5964 11.5469 13.5964 10.9531 13.2188 10.5898C12.8411 10.2266 12.2304 10.2227 11.8567 10.5898L8.03973 14.3008L6.15134 12.4648C5.77366 12.0977 5.16295 12.0977 4.78929 12.4648C4.41562 12.832 4.41161 13.4258 4.78929 13.7891L7.36071 16.2891C7.73839 16.6562 8.34911 16.6562 8.72277 16.2891L13.2188 11.9141Z" fill="black"/>
</g>
<defs>
<clipPath id="clip0_639_130">
<rect width="18" height="20" fill="white"/>
</clipPath>
</defs>
</svg>
