<svg width="21" height="24" viewBox="0 0 21 24" fill="none" xmlns="http://www.w3.org/2000/svg">
<g clip-path="url(#clip0_2233_43)">
<path d="M18 15.75H9C8.5875 15.75 8.25 15.4125 8.25 15V3C8.25 2.5875 8.5875 2.25 9 2.25H15.5672L18.75 5.43281V15C18.75 15.4125 18.4125 15.75 18 15.75ZM9 18H18C19.6547 18 21 16.6547 21 15V5.43281C21 4.8375 20.7609 4.26562 20.3391 3.84375L17.1609 0.660938C16.7391 0.239063 16.1672 0 15.5719 0H9C7.34531 0 6 1.34531 6 3V15C6 16.6547 7.34531 18 9 18ZM3 6C1.34531 6 0 7.34531 0 9V21C0 22.6547 1.34531 24 3 24H12C13.6547 24 15 22.6547 15 21V19.5H12.75V21C12.75 21.4125 12.4125 21.75 12 21.75H3C2.5875 21.75 2.25 21.4125 2.25 21V9C2.25 8.5875 2.5875 8.25 3 8.25H4.5V6H3Z" fill="#6C757D"/>
</g>
<defs>
<clipPath id="clip0_2233_43">
<rect width="21" height="24" fill="white"/>
</clipPath>
</defs>
</svg>
