<?xml version="1.0" encoding="UTF-8"?>
<svg id="Layer_1" data-name="Layer 1" xmlns="http://www.w3.org/2000/svg" viewBox="0 0 613.41 311">
  <defs>
    <style>
      .cls-1, .cls-2 {
        fill: #9cc42d;
      }

      .cls-3 {
        font-family: Comfortaa, Comfortaa;
        font-size: 35.25px;
      }

      .cls-2 {
        font-family: Comfortaa-Bold, Comfortaa;
        font-size: 128.57px;
        font-weight: 700;
        letter-spacing: -.06em;
      }
    </style>
  </defs>
  <text class="cls-3" transform="translate(85.84 228.81) scale(.95 1)"><tspan x="0" y="0">Infosolutions Private Limited</tspan></text>
  <g>
    <g>
      <path class="cls-1" d="M128.65,110.46c2.61,2.51,4.71,5.06,6.5,7.85,5.19,8.07,7.5,16.92,7.01,26.49-1.03,19.77-15.94,36.8-35.4,40.48-24.25,4.58-47.08-11.01-51.66-35.27-4.4-23.33,11.39-46.45,34.75-50.89,7.81-1.48,15.46-.94,22.98,1.63.71.24,1,.55.99,1.34-.05,3.95-.02,7.91-.02,11.86q0,1.09-.99.58c-15.92-8.14-34.99-1.77-42.7,14.26-8.91,18.53,2.6,40.75,22.88,44.17,17.92,3.02,34.36-9.4,36.4-27.52.35-3.14.2-6.28-.45-9.38-.19-.9-.28-1.79-.28-2.71.01-7.2,0-14.39,0-21.59,0-.33,0-.66,0-1.29Z"/>
      <path d="M81,142.2c-.33-8.6,7.33-18.08,18.7-17.31,7.6.52,16.6,7.26,15.91,18.67-.45,7.5-7.16,16.69-18.74,15.92-8.19-.54-15.96-7.65-15.87-17.28Z"/>
    </g>
    <text class="cls-2" transform="translate(146.59 185.22)"><tspan x="0" y="0">destek</tspan></text>
  </g>
</svg>