<svg width="23" height="30" viewBox="0 0 23 30" fill="none" xmlns="http://www.w3.org/2000/svg">
<g clip-path="url(#clip0_183_2245)">
<path d="M3.75 0C1.68164 0 0 1.68164 0 3.75V26.25C0 28.3184 1.68164 30 3.75 30H18.75C20.8184 30 22.5 28.3184 22.5 26.25V9.375H15C13.9629 9.375 13.125 8.53711 13.125 7.5V0H3.75ZM15 0V7.5H22.5L15 0ZM9.12305 14.6602L11.25 17.7012L13.377 14.6602C13.8223 14.0215 14.7012 13.8691 15.334 14.3145C15.9668 14.7598 16.125 15.6387 15.6797 16.2715L12.9668 20.1562L15.6855 24.0352C16.1309 24.6738 15.9785 25.5469 15.3398 25.9922C14.7012 26.4375 13.8281 26.2852 13.3828 25.6465L11.25 22.6055L9.12305 25.6465C8.67773 26.2852 7.79883 26.4375 7.16602 25.9922C6.5332 25.5469 6.375 24.668 6.82031 24.0352L9.5332 20.1562L6.81445 16.2773C6.36914 15.6387 6.52148 14.7656 7.16016 14.3203C7.79883 13.875 8.67188 14.0273 9.11719 14.666L9.12305 14.6602Z" fill="#00CE00"/>
</g>
<defs>
<clipPath id="clip0_183_2245">
<rect width="22.5" height="30" fill="white"/>
</clipPath>
</defs>
</svg>
