<svg width="20" height="20" viewBox="0 0 20 20" fill="none" xmlns="http://www.w3.org/2000/svg">
<g clip-path="url(#clip0_639_96)">
<path d="M6.259 16.5097C5.65398 15.4246 5.33401 14.0947 5.33401 12.6547C5.33401 10.2346 7.429 8.26468 9.99901 8.26468C12.574 8.26468 14.664 10.2347 14.664 12.6547C14.664 12.9297 14.889 13.1547 15.164 13.1547C15.439 13.1547 15.664 12.9297 15.664 12.6547C15.664 9.67965 13.124 7.26465 9.99906 7.26465C6.87409 7.26465 4.33398 9.68466 4.33398 12.6547C4.33398 14.2647 4.699 15.7696 5.389 16.9996C6.064 18.2047 6.53401 18.7597 7.399 19.6346C7.49898 19.7346 7.624 19.7846 7.75398 19.7846C7.879 19.7846 8.00898 19.7396 8.09898 19.6346C8.299 19.4446 8.299 19.1246 8.104 18.9296C7.33398 18.1547 6.904 17.6597 6.259 16.5097Z" fill="black"/>
<path d="M4.4398 2.40998C6.15481 1.47497 8.02479 0.999984 10.0098 0.999984C11.9998 0.999984 13.6648 1.425 15.5798 2.415C15.6548 2.45001 15.7298 2.46998 15.8098 2.46998C15.9898 2.46998 16.1648 2.37 16.2548 2.19998C16.3798 1.95497 16.2848 1.65 16.0398 1.52498C13.9998 0.470015 12.1398 0 10.0098 0C7.85979 0 5.82481 0.515015 3.9598 1.53C3.71478 1.665 3.6298 1.965 3.75978 2.21001C3.89478 2.45498 4.19478 2.54001 4.4398 2.40998Z" fill="black"/>
<path d="M9.96449 4.83008C6.7395 4.83008 3.78951 6.63509 2.45452 9.42509C1.9995 10.3701 1.76953 11.4601 1.76953 12.6601C1.76953 14.0101 2.00953 15.3001 2.49952 16.6151C2.5995 16.8751 2.8845 17.0051 3.14451 16.91C3.40453 16.8101 3.53451 16.5251 3.4395 16.265C2.84447 14.6701 2.77448 13.4401 2.77448 12.6601C2.77448 11.6101 2.96948 10.6651 3.35948 9.85507C4.52948 7.40506 7.12448 5.82509 9.96946 5.82509C13.9645 5.82509 17.2145 8.8901 17.2145 12.6601C17.2145 13.7351 16.2794 14.6051 15.1345 14.6051C13.9895 14.6051 13.0545 13.73 13.0545 12.6601C13.0545 11.0351 11.6745 9.71506 9.97448 9.71506C8.27446 9.71506 6.89446 11.0351 6.89446 12.6601C6.89446 14.6351 7.66448 16.4901 9.05948 17.8801C10.1395 18.9551 11.1795 19.5451 12.7745 19.9801C12.8144 19.9951 12.8594 20.0001 12.9044 20.0001C13.1244 20.0001 13.3244 19.8551 13.3844 19.6351C13.4594 19.3701 13.2995 19.0951 13.0344 19.0201C11.6244 18.6351 10.7044 18.1151 9.75942 17.1751C8.5544 15.9751 7.88943 14.3701 7.88943 12.6651C7.88943 11.5901 8.82445 10.7201 9.96942 10.7201C11.1144 10.7201 12.0494 11.5951 12.0494 12.6651C12.0494 14.2901 13.4344 15.6101 15.1294 15.6101C16.8244 15.6101 18.2094 14.2901 18.2094 12.6651C18.2095 8.34509 14.5095 4.83008 9.96449 4.83008Z" fill="black"/>
<path d="M18.9098 6.90034C17.9148 5.51035 16.6548 4.42032 15.1598 3.65035C12.0098 2.03035 7.9898 2.03537 4.84482 3.66034C3.34482 4.43532 2.07981 5.53534 1.08981 6.93535C0.929823 7.16035 0.984808 7.47034 1.20981 7.63037C1.29981 7.69037 1.39979 7.72037 1.49982 7.72037C1.65484 7.72037 1.80981 7.65038 1.90984 7.51538C2.80482 6.2454 3.94984 5.25038 5.30485 4.5504C8.16985 3.07042 11.8349 3.0654 14.7048 4.54042C16.0548 5.23041 17.1948 6.22041 18.0948 7.48041C18.2548 7.70541 18.5698 7.75543 18.7948 7.5954C19.0198 7.43532 19.0698 7.12534 18.9098 6.90034Z" fill="black"/>
<path d="M15.9653 16.8402C15.5654 16.9101 15.1604 16.9352 14.9204 16.9352C13.9204 16.9352 13.0904 16.7002 12.3854 16.2202C11.1704 15.3952 10.4453 14.0652 10.4453 12.6602C10.4453 12.3852 10.2203 12.1602 9.94533 12.1602C9.67031 12.1602 9.44531 12.3852 9.44531 12.6602C9.44531 14.4002 10.3353 16.0402 11.8203 17.0502C12.6853 17.6352 13.7303 17.9352 14.9203 17.9352C15.0603 17.9352 15.5553 17.9301 16.1403 17.8251C16.4103 17.7751 16.5953 17.5152 16.5453 17.2452C16.4953 16.9752 16.2353 16.7902 15.9653 16.8402Z" fill="black"/>
</g>
<defs>
<clipPath id="clip0_639_96">
<rect width="20" height="20" fill="white"/>
</clipPath>
</defs>
</svg>
