<svg width="25" height="20" viewBox="0 0 25 20" fill="none" xmlns="http://www.w3.org/2000/svg">
<g clip-path="url(#clip0_639_122)">
<path d="M14.8828 4.48869L7.26953 1.63323C6.61719 1.39104 5.89453 1.42619 5.27344 1.73869L3.48047 2.63323C3.04687 2.85198 3.01562 3.45744 3.42187 3.71916L9.16016 7.41057L5.3125 9.37541L3.03906 8.36369C2.69922 8.21135 2.30469 8.21916 1.97266 8.38713L0.714844 9.01604C0.351562 9.19963 0.253906 9.67229 0.519531 9.98088L3.375 13.3129C3.61328 13.5903 3.96094 13.7504 4.32422 13.7504H9.70312C9.89844 13.7504 10.0898 13.7035 10.2617 13.6176L20.9219 8.28947C22.7383 7.37932 24.1445 5.81682 24.8594 3.91447C25.2305 2.9301 24.5 1.87541 23.4453 1.87541H21.2031C20.4141 1.87541 19.6328 2.06291 18.9297 2.42229L14.8828 4.48869ZM0 18.7504C0 19.4418 0.558594 20.0004 1.25 20.0004H23.75C24.4414 20.0004 25 19.4418 25 18.7504C25 18.059 24.4414 17.5004 23.75 17.5004H1.25C0.558594 17.5004 0 18.059 0 18.7504Z" fill="black"/>
</g>
<defs>
<clipPath id="clip0_639_122">
<rect width="25" height="20" fill="white"/>
</clipPath>
</defs>
</svg>
