<svg width="23" height="20" viewBox="0 0 23 20" fill="none" xmlns="http://www.w3.org/2000/svg">
<path d="M11.5 1.25C5.14705 1.25 0 6.28516 0 12.5C0 14.5625 0.571007 16.4961 1.56128 18.1562C1.7849 18.5312 2.21215 18.75 2.65538 18.75H20.3446C20.7878 18.75 21.2151 18.5312 21.4387 18.1562C22.433 16.4961 23 14.5625 23 12.5C23 6.28516 17.853 1.25 11.5 1.25ZM11.5 3.75C12.087 3.75 12.5622 4.14453 12.7099 4.67578C12.666 4.76562 12.6061 4.83984 12.5701 4.9375L12.2028 6.01953C11.9991 6.15625 11.7635 6.25391 11.5 6.25391C10.7932 6.25391 10.2222 5.69531 10.2222 5.00391C10.2222 4.3125 10.7932 3.75 11.5 3.75ZM3.83333 15C3.12656 15 2.55556 14.4414 2.55556 13.75C2.55556 13.0586 3.12656 12.5 3.83333 12.5C4.5401 12.5 5.11111 13.0586 5.11111 13.75C5.11111 14.4414 4.5401 15 3.83333 15ZM5.75 8.75C5.04323 8.75 4.47222 8.19141 4.47222 7.5C4.47222 6.80859 5.04323 6.25 5.75 6.25C6.45677 6.25 7.02778 6.80859 7.02778 7.5C7.02778 8.19141 6.45677 8.75 5.75 8.75ZM15.6049 5.92188L13.1571 13.1094C13.7002 13.5664 14.0556 14.2383 14.0556 15C14.0556 15.457 13.9198 15.8828 13.7002 16.25H9.29983C9.08021 15.8789 8.94444 15.457 8.94444 15C8.94444 13.6758 10.0026 12.6016 11.3363 12.5156L13.784 5.32812C13.9517 4.83594 14.4908 4.56641 14.9979 4.73438C15.501 4.89844 15.7726 5.42969 15.6049 5.92188ZM16.1918 8.15625L16.8108 6.33594C16.9505 6.28516 17.0943 6.25 17.254 6.25C17.9608 6.25 18.5318 6.80859 18.5318 7.5C18.5318 8.19141 17.9608 8.75 17.254 8.75C16.7988 8.75 16.4194 8.50391 16.1918 8.15625ZM19.1667 15C18.4599 15 17.8889 14.4414 17.8889 13.75C17.8889 13.0586 18.4599 12.5 19.1667 12.5C19.8734 12.5 20.4444 13.0586 20.4444 13.75C20.4444 14.4414 19.8734 15 19.1667 15Z" fill="black"/>
</svg>
